<?xml version="1.0" encoding="utf-8"?>
<!-- Generator: Adobe Illustrator 19.0.0, SVG Export Plug-In . SVG Version: 6.00 Build 0)  -->
<svg version="1.1" id="Camada_1" xmlns="http://www.w3.org/2000/svg" xmlns:xlink="http://www.w3.org/1999/xlink" x="0px" y="0px"
	 viewBox="0 0 494 504" style="enable-background:new 0 0 494 504;" xml:space="preserve">
<style type="text/css">
	.st0{fill:#FFFFFF;}
</style>
<path class="st0" d="M290,1c5.4,1.6,11,2.9,16.2,4.9c27.6,10.9,46.1,37.8,46.7,67.5c0.2,11.8-1.1,23.2-5.2,34.4
	c-1,2.8-0.3,6.9,1,9.8c5.8,12.9,12,25.6,18.1,38.4c0.5,1.1,1.2,2.1,1.4,3.2c0.6,3.5,1,7.1,1.4,10.6c-3.2,0.2-6.5,1-9.6,0.5
	c-18.6-3.1-37.1-6.4-55.6-9.8c-7.4-1.4-8.2-2.5-7.1-8.4c1.5-8.5,3.4-10.3,10.4-9.3c8.7,1.3,17.4,3.1,26.1,4.4c2,0.3,4.1-0.5,6.2-0.8
	c-0.4-2-0.4-4.2-1.2-6.1c-3.3-7.4-6.9-14.8-10.5-22.1c-2.4-4.9-2.3-9.5,0.3-14.3c21.1-39.1-8.9-80.8-45.3-85.5
	c-18.8-2.4-35.1,4-48,17.4c-6.1,6.4-12.5,8.6-20.7,8.2c-5.1-0.3-6.9-2.4-3.9-6.4c5.2-7,10.6-14.1,17-19.9C236.9,9.5,248,4.4,260.3,2
	c0.6-0.1,1.1-0.7,1.7-1C271.3,1,280.7,1,290,1z"/>
<path class="st0" d="M248,321.1c28.7,0,57.3-0.2,86,0.2c4.9,0.1,10.3,1.6,14.4,4.2c7.2,4.7,8.2,12.1,5.8,22.6
	c-1.7,7.3-8.7,11.8-17.1,12.1c-5.2,0.2-10.3,0.1-15.5,0.1c-3.4,0-5.8,1-5.7,5.1c0,3-0.6,6-0.6,8.9c0,40.3,0,80.6,0,121
	c0,8.1-0.3,8.5-8.4,8.5c-39.3,0-78.6,0-118,0c-7.5,0-7.8-0.4-7.8-8c0-41.5,0-83,0-124.5c0-0.7,0-1.3,0-2c0-8.2-0.4-8.7-8.5-9
	c-4.3-0.2-8.7,0-13-0.1c-11.6-0.3-17.9-7.3-18.6-19c-0.7-12.9,9.5-20.1,18.6-20.1C189,321.2,218.5,321.1,248,321.1
	C248,321.1,248,321.1,248,321.1z"/>
<path class="st0" d="M161.2,440.6c0,15.3,0.1,30.7-0.1,46c-0.1,7.3-3.7,13.3-10.7,15.3c-14.2,4.1-27.6-0.7-28-18.2
	c-0.3-13-0.1-26-0.1-39c0-5.3-0.2-10.7-0.1-16c0-2.7-1-3.8-3.8-4c-10.5-0.5-20.9-1.2-31.4-1.6c-11.1-0.5-22.3-0.4-33.4-1.2
	c-18.4-1.3-40.2-15.6-43.4-41.6c-2.9-24.1-4.9-48.4-7-72.6c-0.7-7.6-1.6-15.4-0.5-22.9c4.5-29.2,28.9-46,59.1-41.4
	c21.6,3.3,38.2,20.6,40.4,42.3c2.7,26.7,5.3,53.4,7.7,80.1c0.5,5.2,2.4,7.3,7.7,7.9c9.1,0.9,18.1,2.6,27.1,4.2
	c11,1.9,16.4,7.9,16.5,19.1C161.5,411.6,161.3,426.1,161.2,440.6C161.3,440.6,161.2,440.6,161.2,440.6z"/>
<path class="st0" d="M335,441c0-14.7,0-29.3,0-44c0-10.9,5.2-17.1,15.9-18.9c9.3-1.6,18.7-3.2,28.1-4.4c4.7-0.6,6.6-2.9,7-7.4
	c2.5-26.7,4.9-53.4,7.8-80.1c3-27.4,24.9-44.4,54.6-43c25,1.2,45.3,21.9,45.4,47.6c0,12.6-1.8,25.2-2.9,37.8
	c-1.5,16.9-3,33.8-4.9,50.7c-2.6,24.3-23.4,42.5-47.9,43c-20,0.4-39.9,1.7-59.9,2.5c-3.5,0.1-4.6,1.5-4.6,4.8
	c0,17.5-0.1,35-0.1,52.5c0,7.7-1.9,14.6-9.1,18.7c-6.6,3.7-13.7,3.4-20.1,0.5c-6.5-3-9.5-8.8-9.4-16.2
	C335.1,470.3,335,455.6,335,441z"/>
<path class="st0" d="M221.2,57.3c33.5-2.5,62,22.8,66.9,53.5c7.6,47.1-22.2,76-54.5,81.2c-17.8,2.9-35,0.7-50.3-9.7
	c-6.1-4.1-11.9-4.8-18.8-2.8c-9.7,2.9-19.6,5.2-29.5,7.5c-8.8,2-11.3-0.7-8.2-9.4c3.5-9.9,7.5-19.6,11.3-29.4
	c6.4-16.6,12.6-33.3,19.4-49.8c9-21.9,25.2-35.5,48.4-40.7c1.1-0.3,2.3-0.5,3.5-0.5C213.3,57.3,217.2,57.3,221.2,57.3z"/>
<path class="st0" d="M487,179.5c2.7,26.4-21.4,48.2-47.1,47.6c-27.7-0.7-47.7-20.3-47.7-47.7c0-29.2,23.1-48.8,50.1-47.8
	C464.1,132.3,489.5,150.9,487,179.5z"/>
<path class="st0" d="M103.3,179.8c-0.2,27.2-20.8,47.4-48.1,47c-26.9-0.3-46.4-20.8-46.8-48c-0.3-24.5,21-48.5,50.3-47
	C82.1,132.9,104.6,153.3,103.3,179.8z"/>
</svg>
