<?xml version="1.0" encoding="utf-8"?>
<!-- Generator: Adobe Illustrator 19.0.0, SVG Export Plug-In . SVG Version: 6.00 Build 0)  -->
<svg version="1.1" id="Camada_1" xmlns="http://www.w3.org/2000/svg" xmlns:xlink="http://www.w3.org/1999/xlink" x="0px" y="0px"
	 viewBox="0 0 341.6 380" style="enable-background:new 0 0 341.6 380;" xml:space="preserve">
<style type="text/css">
	.st0{fill-rule:evenodd;clip-rule:evenodd;fill:#234091;}
	.st1{clip-path:url(#XMLID_92_);}
	.st2{fill-rule:evenodd;clip-rule:evenodd;fill:#0C0F2C;}
</style>
<path id="XMLID_21_" class="st0" d="M114.3,318.4c3.6-3.6,7.1-12.4-0.9-16.2c-6.5-3.1-11.6,2-14.3,6.8
	C109,310.5,111.9,313.9,114.3,318.4L114.3,318.4z M252.6,338.8c0-7.1-3.5-11-10.8-11c-12.2,0-18.1,14.5-18.1,24.4
	c0,7.1,3.6,11.1,10.9,11.1C246.8,363.3,252.6,348.7,252.6,338.8L252.6,338.8z M259.5,361.8c7.4,2.2,21.5,4.9,27.5,0.8
	c3.4-2.3,4.4-6.6,1-9c-5-3.4-14.8-3.6-21-10.2C266,349.9,263.5,356.4,259.5,361.8L259.5,361.8z M265,326.6
	c7.4-12.5,30.5-11.5,43-8.9v11c-6.9-2-17-3.6-23.5-2c-6.9,1.7-8.4,7.3-4.1,10.2c5.1,3.5,14.6,3.8,20.9,9.8
	c5.1,4.8,4.8,12.7,1.7,17.7c-5.1,8.4-16.2,10.6-25.9,10.6c-9,0-90-1-90.8-1.2c-10.1-3-10.8-12-8.9-21.2l5.1-24.7
	c-14.7,0-9.9,0.1-21.8-1.3c-5.6-0.7-16.6-1.6-19.6,3.9c-1.3,2.4-0.6,4.8,1.7,6.4c5.1,3.5,14.6,3.8,20.9,9.8
	c5.1,4.8,4.8,12.7,1.7,17.7c-5.1,8.4-16.2,10.6-25.9,10.6c-11.3,0-21.8,0-32.7,0c-14.1,0-18-7.3-15.3-20.6l3.7-18.2
	c1-5,1-9.6-4.4-9.6c-2.4,0-4.6,0.6-7.2,1.6c-3.2,12.4-9.2,24.2-17.4,34.1c-3.5,4.2-7.4,8-11.6,11.4H41.3l-11.5-56.4h14.6l8.1,42.9
	c11.8-10.9,17.5-27.3,18.8-42.9c8.2,0,16.5-1.3,23.4-1.3c14,0,18,7.4,15.3,20.6l-3.8,18.2c-1,5.1-1,9.6,4.4,9.6
	c12.1,0,15.8,0.2,29.4,0.2c6.1,0,12.9-1.5,12.9-7.3c0-7.1-14.8-5.6-22.9-13.7c-4.3-4.3-5.4-11.5-2.2-17c4.8-8.2,16.5-10.6,26.1-10.6
	c10.3,0,20.1,1.3,31.1,1.3l3-14.5l15.1-3.6l-3.8,18.1h22.7l-1.6,8c6.2-6.1,14.4-9.3,23.4-9.3C252.6,316.1,261,318.7,265,326.6
	L265,326.6z M210.4,362.4c-3-8-1-19.4,2.8-27c1.3-2.7,2.9-5.2,4.8-7.5h-20.9l-5.2,24.8c-1.3,6.4-0.7,11.3,7.2,11.3
	C203.1,364,206.6,363.2,210.4,362.4z"/>
<g id="XMLID_12_">
	<defs>
		<path id="XMLID_13_" d="M114.3,318.4c3.6-3.6,7.1-12.4-0.9-16.2c-6.5-3.1-11.6,2-14.3,6.8C109,310.5,111.9,313.9,114.3,318.4
			L114.3,318.4z M252.6,338.8c0-7.1-3.5-11-10.8-11c-12.2,0-18.1,14.5-18.1,24.4c0,7.1,3.6,11.1,10.9,11.1
			C246.8,363.3,252.6,348.7,252.6,338.8L252.6,338.8z M259.5,361.8c7.4,2.2,21.5,4.9,27.5,0.8c3.4-2.3,4.4-6.6,1-9
			c-5-3.4-14.8-3.6-21-10.2C266,349.9,263.5,356.4,259.5,361.8L259.5,361.8z M265,326.6c7.4-12.5,30.5-11.5,43-8.9v11
			c-6.9-2-17-3.6-23.5-2c-6.9,1.7-8.4,7.3-4.1,10.2c5.1,3.5,14.6,3.8,20.9,9.8c5.1,4.8,4.8,12.7,1.7,17.7
			c-5.1,8.4-16.2,10.6-25.9,10.6c-9,0-90-1-90.8-1.2c-10.1-3-10.8-12-8.9-21.2l5.1-24.7c-14.7,0-9.9,0.1-21.8-1.3
			c-5.6-0.7-16.6-1.6-19.6,3.9c-1.3,2.4-0.6,4.8,1.7,6.4c5.1,3.5,14.6,3.8,20.9,9.8c5.1,4.8,4.8,12.7,1.7,17.7
			c-5.1,8.4-16.2,10.6-25.9,10.6c-11.3,0-21.8,0-32.7,0c-14.1,0-18-7.3-15.3-20.6l3.7-18.2c1-5,1-9.6-4.4-9.6
			c-2.4,0-4.6,0.6-7.2,1.6c-3.2,12.4-9.2,24.2-17.4,34.1c-3.5,4.2-7.4,8-11.6,11.4H41.3l-11.5-56.4h14.6l8.1,42.9
			c11.8-10.9,17.5-27.3,18.8-42.9c8.2,0,16.5-1.3,23.4-1.3c14,0,18,7.4,15.3,20.6l-3.8,18.2c-1,5.1-1,9.6,4.4,9.6
			c12.1,0,15.8,0.2,29.4,0.2c6.1,0,12.9-1.5,12.9-7.3c0-7.1-14.8-5.6-22.9-13.7c-4.3-4.3-5.4-11.5-2.2-17
			c4.8-8.2,16.5-10.6,26.1-10.6c10.3,0,20.1,1.3,31.1,1.3l3-14.5l15.1-3.6l-3.8,18.1h22.7l-1.6,8c6.2-6.1,14.4-9.3,23.4-9.3
			C252.6,316.1,261,318.7,265,326.6L265,326.6z M210.4,362.4c-3-8-1-19.4,2.8-27c1.3-2.7,2.9-5.2,4.8-7.5h-20.9l-5.2,24.8
			c-1.3,6.4-0.7,11.3,7.2,11.3C203.1,364,206.6,363.2,210.4,362.4z"/>
	</defs>
	<clipPath id="XMLID_92_">
		<use xlink:href="#XMLID_13_"  style="overflow:visible;"/>
	</clipPath>
	<g id="XMLID_19_" class="st1">
		<path id="XMLID_20_" class="st2" d="M8.4,268.2h187.9c-17.5,36.4-27.3,77.9-28.3,125.2l-176.7,6.3L8.4,268.2z"/>
	</g>
</g>
<path id="XMLID_8_" class="st2" d="M240.8,265.8c-27.8,30.8-96.6,24.7-119.8-23.8c-9.8-21.8-16-44.7-19.2-65.7
	c10,0.7,18-1.4,24.3-5.7c-9.5-0.5-18.3-3.6-26.4-9.5c-1.8-25.7-0.7-57.9,0.5-86.7c5.8-6.8,15.5-11.8,27.7-15.5
	c-0.5-0.2-90.7-4.4-124.6,9.3C14.8,47.2,19.8,34,28,13.5C108.6,1,230.6,6.1,310.4,13.3c4.5,19.3,14.2,37.4,27.4,54.6
	c0,0-89.9-9.2-174.9-9.4c-0.5,7.9-1.1,17.2-1.6,27.5c-0.9-0.1-1.7,0.1-2.5,0.5c-2.1,1-4.2,1.9-6.4,2.8c-2.7,1.1-3.4,3.3-2.2,5.7
	c1.2,2.5,2.3,5,3.4,7.5c2.3,5.1,4.6,10.2,6.9,15.4c0,3.8,0,7.7,0.1,11.5c-2.9,2.2-2.7,5.5,0.2,7.4c0,1.1,0.1,2.3,0.1,3.4h5.5
	c0.5,1.8,0.9,3.7,1.4,5.5c-2.2,0.8-4.3,1.7-6.4,2.7c0,0,0,0-0.1,0c0,0-0.1-0.1-0.1-0.1c-3.5-3.7-7-7.4-10.6-11c-1.4-1.4-3-3.2-5-3.6
	c-2-0.4-4.1,0.5-5.9,1.2c-2.7,1-3.9,2.9-3.4,5.7c1.1,6.1,2.1,12.2,3.4,18.3c0,0,0,0.1,0,0.1c-0.1,0-0.1,0.1-0.2,0.1
	c-2.4,1.7-4.7,3.4-6.6,5.6c-1,1.1-1.8,2.4-1.4,3.9c0.4,1.7,1.9,2.5,3.5,2.9c4.2,1.1,8.4,1.3,12.7,1.5c1.8,0.1,3.7,0.2,5,1.5
	c3.3,3.4,7.3,3.9,11.6,2.3C171.3,227,191.2,270,240.8,265.8L240.8,265.8z M252.9,140.2c-4.5,3.4-9.6,5.7-14.9,7.8
	c-0.5,0.2-1,0.4-1.5,0.6c3.5,0.5,6.4,2.7,7.5,6.3c1.6,5.1-0.8,9.2-5.9,11c-2.3,0.8-4.7,1.5-7,2.1c1.5,2.1,3,4.1,4.6,6.2h29.2
	c3.4-12.4,8.5-22.6,14.5-33.9H252.9L252.9,140.2z M203.9,174.2c-0.6-0.5-1.1-0.9-1.7-1.4c-3.9-3.1-8.3-4.6-13.4-3.8
	c-6.5,0.9-13,1.6-19.5,2.1c0.2,0.8,0.3,1.6,0,2.4c-0.1,0.3-0.2,0.5-0.4,0.7H203.9z"/>
<path id="XMLID_2_" class="st0" d="M221.4,155.4c-0.5-0.9-1-1.7-1.6-2.6c-0.8-1.1-1.7-0.1-2.6,0c-0.5,0-0.7,0.5-0.6,1
	C217.4,156.6,218.9,157.1,221.4,155.4L221.4,155.4z M238.6,154.1c-1.3-1.5-2.7-1.8-4.2-0.5c-1.3,1.2-0.9,4.3,0.9,6.1
	c1,1,2.1,1.7,4,0.2c-2.7,0.3-3.6-1-4.2-2.6c-0.5-1.2-0.4-2.3,0.4-3.3C236.4,152.9,237.5,153.8,238.6,154.1L238.6,154.1z
	 M193.4,119.1c-1.7-1.6-3-1.8-4.1-0.6c-1.4,1.6-0.5,5.3,1.7,6.8c1.3,0.9,2.6,1.1,3.7-1c-2.2,1.4-3.2,0.4-4.2-0.9
	c-1.1-1.5-1.1-2.9-0.1-4.3C191.4,117.8,192.4,118.9,193.4,119.1L193.4,119.1z M187.6,116.8c-6.6,2.7-12.8,5.5-18.9,8.5
	c-1.5,0.7-1.8,0.6-2.5-1.1c-3.2-7.7-6.7-15.2-10.1-22.8c-1.1-2.5-2.2-5-3.4-7.5c-0.5-1-0.5-1.7,0.8-2.2c2.2-0.9,4.5-1.8,6.6-2.9
	c1.4-0.7,1.9,0.2,2.6,1c5.7,7.1,11.3,14.2,16.9,21.4c1.4,1.8,3.3,3.2,4.1,5.5c0.3,0.8,0.9,0.4,1.4,0.2c1-0.2,2-0.5,3-0.7
	c4-0.9,6.9,0.6,8.3,4.2c1.3,3.5,0.2,6.3-3.4,8.2c-1.1,0.6-2.4,0.9-3.6,1.4c-0.9,0.4-1.3,0.8-0.2,1.6c2.4,1.7,4.7,3.3,8,3.2
	c-1.3,3.2-4.6,4.2-7.5,6.5c2.8-0.3,4.9-1.3,6.9-1.9c11.4-3.6,22.5-8.1,34.2-10.9c5.6-1.3,11.2-2.2,16.9-1.5c1.9,0.3,3.6,0.9,5,2.2
	c2.7,2.4,2.5,5.6-0.5,8.1c-4.5,3.8-9.9,6.1-15.4,8.3c-4.6,1.9-9.3,3.4-14,5.2c-0.7,0.3-2.2,0.2-1.3,1.6c0.7,0.9,0.5,3.1,2.9,2.1
	c2.8-1.2,5.7-2.3,8.6-3c3.8-0.9,7.1,0.8,8.2,4.3c1.1,3.6-0.3,6.4-4.2,7.7c-2.9,1-5.8,1.8-8.8,2.5c-1.6,0.4-1.5,0.8-0.7,1.9
	c4.1,6,8.8,11.5,13.2,17.3c2.8,3.8,5.7,7.5,8.8,11.6c-3.5,0.8-6.7,1.6-9.8,2.4c-1.1,0.3-1.7-0.3-2.3-0.9c-8.1-6.7-16.2-13.3-24.3-20
	c-3.1-2.5-6.1-5.1-9.2-7.6c-4.5-3.5-9.6-5.2-15.5-4.4c-7.6,1.1-15.3,1.8-23,2.4c0,0.3-0.1,0.5,0,0.6c2.1,3.6,2,3.4-2,5
	c-3.5,1.4-6.3,1.1-8.9-1.5c-1.9-1.9-4.2-2.2-6.8-2.3c-4.1-0.2-8.1-0.4-12.1-1.4c-2-0.5-1.8-1.4-0.7-2.5c1.8-2,4-3.6,6.2-5.2
	c1.1-0.8,1.5-1.5,1.2-2.9c-1.2-6.1-2.2-12.2-3.3-18.2c-0.3-1.5,0.2-2.2,1.7-2.8c4.6-1.7,4.6-1.8,8,1.7c3.6,3.6,7.1,7.3,10.5,11
	c1,1.1,2,1.3,3.4,0.7c2.2-1.1,4.6-2,6.9-2.9c1.1-0.4,1.5-1,1.2-2.1c-0.7-2.5-1.3-5-1.9-7.5c-0.2-0.9-0.7-1.5-1.7-1.8
	c-1.4-0.4-2.7-0.9-4.1-1.5c-2.2-1-2.3-2.5-0.3-3.8c3.8-2.4,8-3.8,12.1-5.3c3.1-1.2,6.1-2.4,9.3-3.2c2.3-0.6,3.5-1.6,3.4-3.9
	C187.4,118.2,187.5,117.7,187.6,116.8L187.6,116.8z M190.8,130.9c8.2-3.7,16.4-7.6,24.7-11.1c8.1-3.5,16-7.4,24.4-10.2
	c6.7-2.2,13.1-1.8,19.1,2.1c5.7,3.7,7.2,8.3,4.2,14.3c-1.7,3.4-4.2,6.2-7.4,8.6c0.9-5-2.1-8.4-8-9c-2.4-0.3-4.9-0.4-7.4-1.1
	c3.1-1.1,6.2-2.3,9.4-3.3c3.7-1.1,7.4-2.2,11.1-3.1c1.3-0.3,1.3-0.8,0.8-1.7c-1.1-2.2-3.1-3.4-5.4-3.9c-2.4-0.4-4.8-0.4-7.2,0.1
	c-1.7,0.4-1.7,0.3-2.6-1.4c1.5-0.8,3.2-1,4.8-1.4c-2.6-0.5-5.1-0.1-7.6,0.6c-6.5,1.8-12.3,4.9-18.5,7.5c-10,4.2-19.7,9-29.8,12.9
	c-1.5,0.6-3,0.9-4.6,0.7C190.9,131.3,190.8,131.1,190.8,130.9z"/>
</svg>
