<?xml version="1.0" encoding="utf-8"?>
<!-- Generator: Adobe Illustrator 19.0.0, SVG Export Plug-In . SVG Version: 6.00 Build 0)  -->
<svg version="1.1" id="Camada_1" xmlns="http://www.w3.org/2000/svg" xmlns:xlink="http://www.w3.org/1999/xlink" x="0px" y="0px"
	 viewBox="0 0 428.4 428.6" style="enable-background:new 0 0 428.4 428.6;" xml:space="preserve">
<style type="text/css">
	.st0{fill:#FFFFFF;}
</style>
<path class="st0" d="M351.2,428.6c-13.4,0-26.8,0-40.1,0c-37.3-13.7-65.6-35.9-74.1-77.2c-1.6-8-8.4-5.9-13.5-5.9
	c-32.7-0.1-65.5,0.2-98.2-0.2c-12.5-0.2-13.7,4.7-13,16.3c1.4,22.9,12.2,44,11.6,67.1c-32.3,0-64.7,0-97,0
	c2.8-46.5,0-92.5-13.4-137.5C9.1,276.6,9.4,260.8,0,248c0-11.1,0-22.3,0-33.4c4.8-0.9,3.2-6.9,6.8-8.7c4.5,0.7,7.6,3.3,9.8,7.2
	c-3.6,2.1-3,5.5-2.9,8.8c1.1,27.1,8.1,53.1,15.8,78.9c4.3,14.5,0.3,35.9,11.6,42.4c12.1,7,31.3,1.9,47.4,2.1c1.7,0,3.3-0.1,5-0.1
	c3.7,0,5.6-2,7.6-5.1c13.9-22.2,12.8-48.8-5.2-67.8c-9.6-10.2-13.5-21-12.6-34.5c0.7-10.5,0.3-21.1,0.5-31.7c4.2,0,8.3,0,12.5-0.1
	c0.1,12.8,0,25.6,0.5,38.4c0.2,4.7-0.9,9.8,3.7,13.8c22.7,19.4,27.8,44,19.9,73.5c36,0,71-0.2,105.9,0.1c8.3,0.1,9-4.7,8.8-10.6
	c-0.4-9.4-6.6-4.4-10.7-3.9c-28.6,3.4-53.4-9.3-66.6-34.3c-10.8-20.5-5.9-49,12-69.3c2.4,3.4,4.9,6.9,7.3,10.3
	c-2.5,4.3-5.4,8.4-7.4,12.9c-8.7,20-2,50.7,14.6,59.2c17,8.7,35.6,13.2,53.6,1.6c15.5-10,26-41.2,20.9-59.6c3-2.7,6-5.3,9-8
	c1.6,2.2,4.4,4.3,4.6,6.6c1.2,15.5,8.2,13.5,19.1,8c16.6-8.4,34.5-11.2,53.1-8c29.4,5,29.5,4.9,28.7-25.3c0-1.1-0.2-2.2-0.3-3.3
	c4.4,0,8.9,0.1,13.3,0.1c0.1,7.2-0.2,14.4,0.4,21.6c0.7,8.6-3.8,19.1,3.8,25.4c18.3,15.2,27.2,36.3,37.7,56.4c0,14.5,0,29,0,43.5
	C413.3,390.8,389.1,416.9,351.2,428.6z M332.8,304.5c-44.9,0-47.1,2.2-41.7,41.8c0.1,0.5,0.1,1.1,0.2,1.7
	c0.5,8.1,4.4,11.5,12.9,11.3c18.3-0.5,36.6-0.4,54.9,0c8.4,0.2,11.5-3,12.3-11.5C375.2,304.5,375.4,304.5,332.8,304.5z M74,414.7
	c7.2,0,14.4-0.5,21.6,0.1c10.1,0.9,13-3.4,10.7-12.6c-0.8-3.2-2.1-6.2-2.6-9.4c-5.5-33.6-5.5-33.6-39.9-33.6
	c-22.4,0-22.4,0-22.4,22.2C41.4,414.7,41.4,414.7,74,414.7z M298.6,373.4c3.3,18.3,16.8,25.3,26.7,35.3c3.6,3.6,7.3,4.2,11.7,0.7
	c9.6-7.7,17.5-16.9,23.5-27.6c3-5.4,1.5-8.3-4.9-8.3C336.9,373.4,318.3,373.4,298.6,373.4z M296.1,290.9c21.3,0,39,0.1,56.8-0.1
	c4.7,0,12,0.9,8.1-7.4c-6.2-13.3-14.6-27.2-28.5-31c-11.7-3.2-17.6,10.8-24,19.6C304.7,277.2,301.4,282.8,296.1,290.9z M415.2,331.3
	c-1.3-7-1.9-13.7-3.8-20c-3.6-12.1-13.8-6-21-6.5c-8.3-0.6-5,6.5-5.1,10.9c-0.1,11-0.1,21.9-0.1,32.9c0,4.6-6.3,11.9,3.5,12.4
	c7.8,0.4,18.7,5.4,22.3-7.3C413,346.4,413.8,338.6,415.2,331.3z M276.5,332.7c0.2-3.3,1.2-6.9,0.3-10c-1.7-6.4,8.4-17.2-7.8-18.5
	c-13.8-1.1-18.9,4.2-19.9,17.3c-0.6,8.4,0.3,16.6,0.8,24.9c0.9,14.6,10.7,12.9,20.2,12.6c12.2-0.3,6.3-9.1,6.8-14.6
	C277.4,340.6,276.8,336.6,276.5,332.7z M360.3,406.9c17.9-4.7,31-15.2,40.7-31.7C370,364.9,375.7,399.3,360.3,406.9z M297.1,401.3
	c-4.7-9.8-7.6-20.6-16.1-26.8c-4.3-3.2-11.9-2.5-17.5,0.5c-1.9,1-2,4.5-0.2,5.9c9,7,14.4,18,25.2,22.8
	C292,405.2,295.9,406.7,297.1,401.3z M297.1,257.6c-17.1,6-27.5,17.8-37.2,32.2C283.4,292,290.7,285.6,297.1,257.6z M402.4,289.3
	c-10.7-15.6-21.1-28.1-41.7-32.6c4.8,7.5,9.6,12.1,10.8,17.5C375,290.6,385.1,293.6,402.4,289.3z"/>
<path class="st0" d="M96.3,206c-4.2,0-8.3,0-12.5,0c-1.1-4.8-1.6-10-3.6-14.4c-3.5-7.8-10.1-12.3-18.7-10.5
	c-8.3,1.7-5.7,9.6-6.1,15.2c-0.7,9.4-0.8,18.8-1.1,28.1c-4.1,0-8.2,0-12.3,0c-2.9-12.8,2.2-26.6-3.9-40.5
	c-7.9,10.7-14.7,19.9-21.5,29c-2.2-3.9-5.3-6.5-9.8-7.2c5-11.2,12.6-20.9,20.6-29.9C38,164,41.9,151.2,41.4,135.2
	c-1-37.1-0.3-74.2-0.5-111.3c-0.1-9.2,0.6-17.8,9.3-23.4c109.3,0,218.5,0,327.8,0c6.3,4.5,9.3,10.5,9.2,18.4
	c-0.4,63.1-0.6,126.2-0.9,189.3c-4.4,0-8.9-0.1-13.3-0.1c-0.3-27.8-0.3-27.8-28.8-27.8c-73.3,0-146.6-0.1-219.9,0.1
	c-9.9,0-21.8-3.9-29.1,2.2C89.5,187.2,99.2,197.7,96.3,206z M214.3,14.3c-47.9,0-95.8,0.3-143.6-0.2c-11.5-0.1-15.5,3.2-15.3,15
	c0.5,40.6,0.4,81.3-0.1,121.9C55,162,57.7,166.5,70,166.4c95.8-0.5,191.5-0.5,287.3,0c13,0.1,15.9-4.8,15.7-16.7
	c-0.6-40.1-0.8-80.2-0.1-120.3c0.2-13.1-4.7-15.6-16.6-15.5C309,14.6,261.6,14.3,214.3,14.3z"/>
<path class="st0" d="M173,373.2c4.7-0.1,7-2.2,6.8-7.2c-0.2-4.8-2.5-6.8-7.2-6.9c-5-0.1-6.8,2.7-6.8,7.2
	C165.8,371,168.3,373.3,173,373.2z"/>
<path class="st0" d="M145.5,373.2c5.3,0.1,6.4-3.1,6.3-7.6c-0.2-5-2.9-6.6-7.5-6.4c-5.1,0.2-6.4,3.2-6.4,7.7
	C137.8,372.2,141.1,373.2,145.5,373.2z"/>
<path class="st0" d="M200.9,373.1c5.3,0.3,6.4-2.9,6.4-7.4c-0.1-5.1-2.7-6.6-7.4-6.6c-5.3,0-6.3,3.2-6.4,7.6
	C193.5,371.9,196.3,373.5,200.9,373.1z"/>
<path class="st0" d="M240.8,243.1c-0.6-7.1-5.2-6.9-9.1-3.8c-5.5,4.5-10.6,9.8-14.9,15.5c-6.1,8.1-11.5,13.7-19.8,2.4
	c-2.4-3.3-5.6-5.5-9.6-1.7c-2.5,2.4-5.2,5.3-2.1,8.4c6.9,7,13.4,16.1,21.9,19.5c5.5,2.2,9.8-8.8,14.5-14c4.3-4.9,7.7-10.6,11.7-15.9
	C236,250.1,241.2,248.6,240.8,243.1z"/>
<path class="st0" d="M258.9,238c-18.6-34.4-49.7-39.8-81.7-14.1c-2.4-3.4-4.9-6.9-7.3-10.3c27.2-34,87.5-20.8,98,16.3
	C264.8,232.7,261.9,235.4,258.9,238z"/>
<path class="st0" d="M54.3,224.5c0.2,10,0.4,20,0.4,30c0,4.3-1.2,7.7-6.5,7.6c-5.1-0.1-6.7-3.2-6.7-7.6c0.1-10,0.3-20,0.4-30
	C46.1,224.4,50.2,224.5,54.3,224.5z"/>
<path class="st0" d="M173,373.2c-4.7,0.1-7.2-2.1-7.2-6.9c0-4.5,1.8-7.2,6.8-7.2c4.7,0.1,7,2.1,7.2,6.9
	C180,370.9,177.7,373.1,173,373.2z"/>
<path class="st0" d="M145.5,373.2c-4.3,0-7.6-1-7.7-6.3c0-4.5,1.2-7.5,6.4-7.7c4.7-0.2,7.4,1.4,7.5,6.4
	C151.9,370,150.7,373.3,145.5,373.2z"/>
<path class="st0" d="M200.9,373.1c-4.6,0.4-7.4-1.3-7.4-6.4c0-4.4,1-7.5,6.4-7.6c4.6,0,7.3,1.5,7.4,6.6
	C207.4,370.3,206.2,373.4,200.9,373.1z"/>
<path class="st0" d="M240.8,243.1c0.4,5.5-4.7,7-7.3,10.4c-4,5.2-7.4,11-11.7,15.9c-4.6,5.2-8.9,16.2-14.5,14
	c-8.6-3.4-15-12.4-21.9-19.5c-3.1-3.2-0.4-6,2.1-8.4c4-3.8,7.2-1.6,9.6,1.7c8.2,11.3,13.7,5.7,19.8-2.4c4.3-5.7,9.3-11,14.9-15.5
	C235.6,236.2,240.2,236,240.8,243.1z"/>
<path class="st0" d="M132,152.1c-16.7,0-33.4-0.3-50.1,0.1c-9,0.2-12.9-2.5-12.8-12.2c0.4-33.4,0.3-66.7-0.1-100.1
	c-0.1-9.5,3.4-12.5,12.7-12.4c33.4,0.4,66.7,0.4,100.1,0c9.9-0.1,12.2,4,12.1,12.9c-0.4,32.8-0.5,65.6-0.1,98.4
	c0.2,10.2-3.4,13.8-13.4,13.4C164.3,151.7,148.1,152.1,132,152.1z M83.3,130.8C95,120.2,106.4,113.7,98,95.2
	c-5.9-13.1,1.9-27.3,16-34.7c14.2-7.5,28.8-7,40.1,4.6c9.9,10.1,16.1,24.2,8.4,37.6c-5.2,9.2-3,12.3,4.3,16.2
	c4.7,2.5,5.7,9.3,12.8,11.1c0-25.9-0.3-50.9,0.2-75.8c0.2-9.7-3.9-12.5-12.9-12.3c-23.9,0.4-47.9,0.3-71.8,0
	c-8.3-0.1-12,2.4-11.9,11.4C83.6,78.2,83.3,103.3,83.3,130.8z M151.4,90.5c-1.2-12.8-7.5-20-20.2-20.2c-12.5-0.3-21.3,8.4-20.3,20.6
	c1,12.2,8.3,19.8,20.6,19.5C143.7,110.2,150.1,102.2,151.4,90.5z M163.5,137.2c-17.9-18.4-52.4-17.2-61.8,0
	C121.5,137.2,141.1,137.2,163.5,137.2z"/>
<path class="st0" d="M282.8,70c-20.5,0-41.1-0.5-61.6,0.2c-10.6,0.3-14.7-2.7-14.3-14c1.1-34.7-3.6-28.1,27.8-28.5
	c36.1-0.4,72.2,0.3,108.3-0.3c12-0.2,18,2.7,16.2,15.6c-0.6,3.8-0.6,7.8,0,11.6c1.9,13-4.4,16.1-16.3,15.6
	C322.8,69.4,302.8,70,282.8,70z M290.1,49.3c-0.4-6.2-3.6-7.4-7.9-7.1c-5.4,0.3-5.5,4.2-5.3,8.2c0.2,4.3,3.1,5.3,6.7,5.1
	C288.2,55.2,290.4,52.8,290.1,49.3z M252.4,42.3c-1.8,0.3-4.1,2.5-3.8,7.2c0.3,5.1,3.6,6,7.8,5.9c4.2-0.1,5.4-2.9,5.4-6.5
	C261.9,44.3,259.9,41.8,252.4,42.3z M228,55.3c5.2,0.2,6.4-2.9,6.2-7.4c-0.2-5.3-3.6-6.1-7.8-5.8c-4.2,0.3-5.3,2.9-5.4,6.6
	C220.9,53.8,223.4,55.6,228,55.3z M337.8,42.2c-5,0-6.4,2.9-6.2,7.4c0.2,5.4,3.7,5.9,7.8,5.8c4.2-0.1,5.4-2.8,5.4-6.5
	C344.8,44,342.5,41.9,337.8,42.2z M317.5,48.8c0.3-5-2.3-6.8-7-6.7c-5.2,0.1-6.3,3.1-6.2,7.5c0.2,4.1,2.4,5.6,6.3,5.7
	C315.2,55.5,317.9,53.8,317.5,48.8z"/>
<path class="st0" d="M310.9,152.1c-12.8,0-25.6,0.1-38.4,0c-4.4,0-9.5,0.4-9.8-6.1c-0.4-7.2,4.5-7.8,10-7.8
	c25.6,0.1,51.2,0,76.8,0.1c4.8,0,9,0.8,9,7.1c0,6.5-4.6,6.7-9.2,6.7C336.5,152.1,323.7,152,310.9,152.1z"/>
<path class="st0" d="M310.4,124.5c-12.2,0-24.4,0.1-36.5-0.1c-4.6-0.1-10.6,1.4-11.1-6.3c-0.5-7.6,5-7.3,10-7.3
	c25.5,0,50.9,0,76.4,0c4.4,0,9.1-0.4,9.4,6.3c0.3,7.7-4.9,7.4-10,7.4C335.9,124.5,323.1,124.5,310.4,124.5z"/>
<path class="st0" d="M312.4,83.6c12.7,0,25.5,0,38.2,0c4.1,0,7.7,0.6,8,6c0.3,5.8-2.6,7.8-8,7.8c-26.6-0.1-53.2-0.1-79.8,0
	c-5.2,0-8.5-1.9-8.1-7.7c0.3-5.3,4-6,8.1-6C284.7,83.6,298.5,83.6,312.4,83.6z"/>
<path class="st0" d="M228.4,138.2c3.3,0,6.6,0,9.9,0c5.4-0.1,10.1,0.8,9.7,7.8c-0.4,6.5-5.3,5.9-9.6,6c-7.1,0.2-14.3,0.2-21.4,0
	c-4.2-0.1-9.2,0.6-9.6-6c-0.4-7.1,4.1-7.9,9.5-7.9C220.8,138.2,224.6,138.2,228.4,138.2z"/>
<path class="st0" d="M226,124.3c-4.4,0-8.9,0.1-13.3,0c-4.3-0.1-5.4-2.9-5.4-6.7c0-3.8,1.1-6.5,5.4-6.6c9.4-0.1,18.8-0.1,28.2-0.1
	c4.6,0,7.2,1.7,7.2,6.8c0,5.1-2.7,6.8-7.2,6.8c-5,0-10,0-15,0C226,124.4,226,124.3,226,124.3z"/>
<path class="st0" d="M226,97.2c-4.4,0-8.9,0.1-13.3,0c-4.3-0.1-5.3-2.9-5.4-6.7c0-3.8,1.2-6.6,5.4-6.6c10-0.1,19.9-0.1,29.9,0
	c4.2,0.1,5.5,2.8,5.5,6.6c0,3.8-1.3,6.5-5.5,6.6C237.1,97.3,231.5,97.2,226,97.2z"/>
</svg>
